<svg width="1328" height="1036" viewBox="0 0 1328 1036" fill="none" xmlns="http://www.w3.org/2000/svg">
<g opacity="0.2" clip-path="url(#clip0_34_96)">
<g opacity="0.5">
<path d="M1194.44 298.662C1177.26 329.544 1153.39 356.822 1123.37 378.531C1057.2 426.442 975.794 447.613 909.699 495.738C851.324 538.242 804.543 596.482 759.807 652.436C706.032 719.715 629.337 770.719 540.564 748.203C454.616 726.414 404.365 651.495 389.946 567.86C376.711 491.111 394.869 417.914 438.798 353.997C483.346 289.193 545.434 237.839 596.976 178.98C648.625 120.013 695.863 56.3927 727.768 -15.6211C769.034 -108.806 808.175 -222.92 911.824 -262.975C963.447 -282.909 1021.79 -275.08 1064.97 -240.136C1124.66 -191.849 1149.12 -118.921 1174.57 -49.3011C1214.51 59.9166 1255.08 189.74 1194.44 298.662Z" stroke="#29A8DE" stroke-width="2" stroke-miterlimit="10"/>
<path d="M636.493 586.34C568.998 572.163 527.087 517.178 516.595 452.266C514.04 436.609 513.421 420.953 514.497 405.431C517.295 364.676 531.66 324.164 556.705 286.906C588.179 240.044 632.054 202.302 668.962 159.611C696.132 128.19 721.822 95.156 743.128 59.6199C750.795 46.8419 757.897 33.7412 764.299 20.2908C796.123 -46.1276 826.871 -125.7 900.767 -154.35C940.85 -169.952 985.694 -164.976 1020.07 -138.398C1065.7 -103.104 1084.77 -49.813 1102.47 1.80984C1106.34 13.162 1110.11 24.8369 1113.63 36.7002C1135.1 108.929 1147.23 189.175 1107.72 258.74C1095.37 280.665 1078.5 300.168 1057.52 315.959C1011.2 350.795 954.462 367.716 907.842 402.364C866.576 433.085 833.192 474.351 800.642 513.384C758.811 563.582 701.028 599.871 636.493 586.34Z" stroke="#29A8DE" stroke-width="2" stroke-miterlimit="10"/>
<path d="M732.395 424.423C683.166 418.182 649.782 382.781 643.245 336.619C641.685 325.751 641.685 314.668 643.03 303.45C646.258 276.522 656.777 247.388 674.558 219.761C693.093 190.923 718.649 166.713 740.896 140.161C757.225 120.685 773.015 100.536 786.762 79.3923C791.712 71.7524 796.392 64.0049 800.777 56.1229C822.97 16.3903 845.513 -28.5342 889.685 -45.7777C918.227 -57.0223 949.512 -54.8702 975.149 -36.6852C1006.68 -14.3036 1020.4 19.2686 1030.35 52.8679C1032.56 60.3463 1034.49 68.0132 1036.21 75.8414C1046.41 122.084 1047.65 173.303 1021.01 218.82C1013.43 231.759 1003.64 243.542 991.666 253.387C965.169 275.177 933.157 287.794 906.014 309.018C881.857 327.93 861.735 352.114 841.505 374.334C811.403 407.368 772.504 429.508 732.395 424.423Z" stroke="#29A8DE" stroke-width="2" stroke-miterlimit="10"/>
<path d="M828.321 262.534C790.31 267.107 761.903 239.48 771.56 201.496C774.896 188.368 782.24 170.883 792.436 152.644C802.631 134.405 815.678 115.386 830.42 99.2187C845.161 83.0513 861.625 69.7084 878.653 62.8217C895.681 55.9351 913.274 55.4778 930.276 65.0545C951.474 76.9985 959.571 94.8339 958.818 115.01C958.064 135.185 948.488 157.674 934.311 178.899C920.134 200.124 901.384 220.111 882.311 235.257C863.212 250.375 843.789 260.678 828.321 262.534Z" stroke="#29A8DE" stroke-width="2" stroke-miterlimit="10"/>
<path d="M282.343 339.2C330.684 298.338 380.908 259.735 432.827 223.553C484.746 187.372 538.332 156.947 582.665 111.081C717.977 -28.8578 791.766 -322.67 594.071 -448.942C469.735 -528.354 317.503 -459.514 186.576 -512.617C130.192 -535.483 70.0683 -578.551 9.00321 -539.975C-14.4544 -525.153 -29.1154 -499.731 -39.5529 -474.014C-88.4857 -353.552 -70.1124 -208.583 -75.7347 -80.9919C-81.5722 51.3337 -87.4366 188.851 -49.1297 317.276C-35.3295 363.573 -9.2356 407.879 31.2234 434.268C127.098 496.84 202.313 407.825 270.077 349.665C274.139 346.168 278.228 342.671 282.343 339.2Z" stroke="#29A8DE" stroke-width="2" stroke-miterlimit="10"/>
<path d="M108.749 274.962C173.956 314.156 226.575 257.422 272.575 216.909C275.319 214.488 278.09 212.067 280.834 209.646C315.294 179.167 348.705 148.285 384.86 120.201C421.068 92.0085 459.806 68.7391 493.217 36.5387C503.95 26.2356 514.334 15.018 524.072 2.9664C606.631 -99.1226 655.94 -272.902 535.881 -365.818C446.597 -434.927 321.4 -375.556 233.784 -393.418C197.172 -400.87 159.807 -423.817 121.554 -395.678C106.65 -384.73 97.1275 -367.298 89.9718 -349.839C78.243 -321.27 71.1143 -291.114 65.8686 -260.636C56.0498 -203.606 54.4895 -146.038 45.7736 -91.8324C32.5384 -9.5425 21.9932 81.544 42.0882 167.412C44.0251 175.67 46.2309 183.902 48.7596 192.053C59.1972 225.545 78.9156 257.019 108.749 274.962Z" stroke="#29A8DE" stroke-width="2" stroke-miterlimit="10"/>
<path d="M186.279 115.628C220.443 132.01 250.868 106.966 275.105 84.1536C276.531 82.8086 277.984 81.4635 279.383 80.0916C299.908 59.889 316.533 36.835 336.924 16.8477C357.449 -3.32803 381.31 -19.4955 403.799 -38.0034C411.17 -44.0292 418.487 -50.2971 425.535 -56.8609C482.646 -110.259 541.559 -211.595 477.75 -282.721C424.056 -342.549 329.822 -294.342 281.051 -274.247C265.69 -267.926 249.603 -268.921 234.162 -251.408C227.867 -244.253 223.429 -234.891 219.528 -225.664C213.126 -210.465 207.719 -195.078 201.827 -180.282C190.744 -152.547 180.011 -127.718 167.313 -102.7C144.797 -58.3404 130.432 -1.66022 142.457 51.6036C143.614 56.6879 145.013 61.7989 146.707 66.8025C153.729 87.5431 166.91 106.347 186.279 115.628Z" stroke="#29A8DE" stroke-width="2" stroke-miterlimit="10"/>
<path d="M813.125 1085.35C784.126 975.004 698.769 879.802 590.358 844.212C556.383 833.048 520.604 827.507 487.516 814.029C432.88 791.755 388.144 747.046 364.445 693.163C342.951 644.365 350.51 588.035 328.263 539.532C307.549 494.339 263.701 468.084 213.853 472.522C164.49 476.934 120.857 504.911 77.2773 526.136C36.5493 545.962 -6.27694 565.761 -34.9533 602.292C-79.3129 658.838 -86.5493 733.838 -96.9868 802.489C-113.692 912.271 -123 1023.61 -123 1134.72C-123 1193.68 -118.534 1254.59 -91.6335 1307.07C-53.0307 1382.39 25.7621 1428.63 105.174 1457.96C253.317 1512.67 424.756 1522.3 578.522 1485.61C662.91 1465.49 756.041 1420.32 792.976 1336.82C828.163 1257.33 835.291 1169.71 813.125 1085.35Z" stroke="#29A8DE" stroke-width="2" stroke-miterlimit="10"/>
<path d="M669.581 1284.47C681.31 1260.77 689.837 1235.62 694.518 1209.77C701.728 1170.25 700.463 1129.68 690.86 1089.95C670.038 1003.82 605.584 928.385 524.612 896.292C499.164 886.097 472.505 879.829 447.702 868.342C407.539 849.727 373.079 814.379 353.253 772.306C335.687 734.698 338.431 691.818 320.031 655.126C303.056 621.311 269.699 601.351 232.065 604.148C194.43 606.865 161.073 627.606 127.904 644.742C97.6677 660.371 65.8978 676.324 44.5115 705.081C11.3696 749.629 6.76955 806.739 0.878253 858.981C-8.56397 942.454 -9.5593 1026.09 -6.16978 1109.56C-4.42122 1153.22 -0.251587 1198.39 20.0317 1237.58C49.1923 1293.91 106.68 1329.64 164.355 1353.45C207.827 1371.36 253.854 1384.22 300.635 1391.54C369.475 1402.33 440.547 1401.89 508.041 1389.04C543.954 1382.2 582.368 1369.24 614.192 1347.23C637.408 1331.23 656.749 1310.4 669.581 1284.47Z" stroke="#29A8DE" stroke-width="2" stroke-miterlimit="10"/>
<path d="M546.187 1232.12C555.79 1216.22 563.242 1198.74 567.519 1180.42C574.244 1152.17 574.433 1123.15 568.622 1094.61C556.005 1032.71 512.318 977.264 458.866 948.426C441.919 939.28 424.433 932.259 407.916 922.709C382.226 907.86 357.934 881.82 342.089 851.475C328.316 825.086 326.433 795.602 311.826 770.746C298.644 748.283 275.752 734.725 250.303 735.801C224.398 736.904 201.317 750.274 178.559 763.402C158.787 774.808 138.127 786.94 123.977 807.95C102.079 840.473 100.062 879.748 98.7437 915.526C96.5916 972.691 103.828 1028.48 110.634 1084.44C114.077 1112.74 118.005 1142.19 131.697 1168.1C151.416 1205.44 187.597 1230.64 223.537 1248.91C250.626 1262.63 279.007 1273.6 307.844 1280.95C349.971 1291.71 394.277 1296.34 437.534 1292.46C460.749 1290.39 485.955 1284.36 507.584 1271.21C523.159 1261.74 536.26 1248.59 546.187 1232.12Z" stroke="#29A8DE" stroke-width="2" stroke-miterlimit="10"/>
<path d="M422.791 1179.77C430.457 1171.73 436.591 1161.83 440.518 1151.07C446.732 1134.07 448.427 1116.61 446.383 1099.23C441.944 1061.54 419.159 1025.82 393.146 1000.51C384.699 992.301 376.306 984.796 368.128 977.021C356.803 966.261 342.922 949.152 330.897 930.59C321.078 915.391 314.487 899.332 303.593 886.312C294.285 875.175 281.749 867.992 268.487 867.427C254.283 866.835 241.451 872.78 229.185 882.034C219.85 889.082 210.3 897.556 203.414 910.765C192.734 931.29 193.326 952.676 196.581 972.018C201.719 1002.85 216.676 1030.72 227.436 1059.23C232.305 1072.12 236.26 1085.92 243.335 1098.56C253.611 1116.91 268.487 1131.62 282.718 1144.32C293.424 1153.84 304.104 1162.8 315.052 1170.3C330.386 1180.82 348.14 1190.88 367.052 1195.86C377.624 1198.63 389.487 1199.44 401.028 1195.13C408.856 1192.23 416.011 1186.88 422.791 1179.77Z" stroke="#29A8DE" stroke-width="2" stroke-miterlimit="10"/>
<path d="M991.99 1073.22C899.531 1065.07 818.613 993.109 787.893 907.268C750.231 801.978 817.806 695.531 892.214 624.324C938.457 580.045 996.052 544.993 1055.93 522.343C1117.48 499.074 1236.38 439.515 1295.41 495.011C1352.27 548.517 1313.05 666.397 1297.34 730.152C1261.99 873.373 1174.7 1086.67 994.895 1073.43C993.927 1073.38 992.958 1073.3 991.99 1073.22Z" stroke="#29A8DE" stroke-width="2" stroke-miterlimit="10"/>
<path d="M890.656 872.699C880.568 850.883 878.739 826.43 882.854 803.295C891.812 752.963 924.255 705.968 959.495 669.893C989.194 639.469 1027.72 614.155 1067.53 597.1C1110.14 578.834 1186.97 542.006 1226.94 583.945C1262.4 621.176 1239.56 696.041 1228.99 738.814C1205.53 833.801 1146.03 969.328 1031.19 967.471C1030.57 967.471 1029.92 967.444 1029.3 967.444C986.611 966.476 947.013 945.843 918.794 915.23C907.227 902.667 897.865 888.275 890.656 872.699Z" stroke="#29A8DE" stroke-width="2" stroke-miterlimit="10"/>
<path d="M993.418 838.159C984.729 827.641 982.846 812.092 985.132 798.077C990.136 767.571 1007.43 739.11 1026.75 715.491C1040.09 699.189 1059.3 683.102 1079.07 671.858C1102.72 658.407 1137.82 643.961 1158.43 672.88C1172.95 693.244 1165.99 725.686 1160.58 747.476C1148.99 794.257 1117.08 852.47 1067.4 861.509C1067.1 861.563 1066.8 861.617 1066.53 861.697C1046.76 865.544 1027.31 862.181 1011.09 853.116C1004.47 849.377 998.583 844.4 993.418 838.159Z" stroke="#29A8DE" stroke-width="2" stroke-miterlimit="10"/>
<path d="M753.163 792.884C750.285 804.963 745.712 816.718 740.493 827.371C734.898 838.777 726.236 849.349 714.345 853.761C689.946 862.8 664.256 843.162 646.232 829.012C642.574 826.161 638.915 823.121 636.548 819.139C629.339 807.061 640.502 795.467 649.514 788.499C669.878 772.762 691.856 759.742 712.113 743.924C755.827 709.733 760.938 760.119 753.163 792.884Z" stroke="#29A8DE" stroke-width="2" stroke-miterlimit="10"/>
<path d="M705.518 810.128C700.918 812.495 694.919 812.495 690.803 809.348C688.463 807.572 686.795 804.586 687.521 801.762C688.355 798.48 691.826 796.785 694.623 794.902C700.057 791.271 710.36 775.318 716.09 786.213C720.26 794.203 712.647 806.443 705.518 810.128Z" stroke="#29A8DE" stroke-width="2" stroke-miterlimit="10"/>
<path d="M1459.98 616.818C1421 565.303 1392.95 502.543 1339.52 463.564C1313.67 444.706 1286.12 439.541 1256.85 428.969C1231.08 419.662 1209.37 403.817 1214.65 373.365C1222.42 328.494 1252.98 291.371 1265.22 247.738C1277.22 204.938 1278.4 159.449 1268.66 116.112C1261.4 83.8575 1244.13 38.8254 1269.9 10.2567C1282.03 -3.19379 1301.62 -6.85241 1319.72 -7.49804C1382.83 -9.75771 1424.55 -34.3451 1476.9 -67.8368C1491.48 -77.1714 1508.57 -86.0486 1525.38 -81.852" stroke="#29A8DE" stroke-width="2" stroke-miterlimit="10"/>
<path d="M1462.84 539.748C1430.37 496.976 1405 446.832 1359.4 417.134C1334.81 401.101 1306.81 396.77 1281.12 384.368C1261.51 374.899 1244.37 362.498 1248.25 338.018C1253.92 301.675 1277.49 270.981 1287.71 235.418C1297.69 200.689 1299.71 164.05 1294.03 129.16C1289.75 102.797 1278.43 67.0991 1298.9 44.045C1309.34 32.2893 1325.29 28.0927 1340.25 26.3711C1392.44 20.3184 1429.1 0.223366 1475.02 -25.0904C1487.75 -32.1384 1502.43 -38.7291 1517.01 -35.4741" stroke="#29A8DE" stroke-width="2" stroke-miterlimit="10"/>
<path d="M1465.66 462.676C1439.7 428.646 1416.65 391.496 1379.28 370.702C1355.77 357.628 1327.71 354.507 1305.39 339.766C1291.83 330.808 1279.37 321.177 1281.85 302.669C1285.45 274.88 1302 250.562 1310.23 223.123C1318.19 196.491 1321.1 168.622 1319.45 142.259C1318.19 121.787 1312.76 95.3975 1327.96 77.885C1336.67 67.8241 1349.05 63.0627 1360.83 60.2919C1402.09 50.4193 1433.73 34.9512 1473.22 17.7346C1484.09 13.0001 1496.36 8.64211 1508.73 10.9825" stroke="#29A8DE" stroke-width="2" stroke-miterlimit="10"/>
<path d="M1468.51 385.633C1449.09 360.373 1427.92 336.835 1399.16 324.326C1376.54 314.48 1348.32 313.269 1329.62 295.219C1321.74 287.606 1314.37 279.912 1315.39 267.376C1316.95 248.115 1326.45 230.226 1332.69 210.858C1338.63 192.296 1342.56 173.143 1344.79 155.388C1346.62 140.727 1346.95 123.699 1356.93 111.728C1363.92 103.362 1372.72 98.062 1381.33 94.2152C1411.67 80.5495 1438.25 69.5741 1471.31 60.5623C1480.29 58.1143 1490.19 56.016 1500.34 57.4686" stroke="#29A8DE" stroke-width="2" stroke-miterlimit="10"/>
<path d="M1469.67 711.402C1451.27 685.523 1409.73 686.868 1384.5 706.183C1359.27 725.498 1346.71 756.757 1336.59 786.859C1314.45 852.659 1298.36 920.987 1266.62 982.751C1234.88 1044.49 1184.04 1100.66 1117.11 1119C1077.35 1129.9 1034.44 1126.89 995.46 1140.28C955.539 1154 922.613 1184.4 900.93 1220.61C879.248 1256.82 868.111 1298.57 863.162 1340.48C859.395 1372.38 859.153 1405.23 868.058 1436.11C876.962 1466.99 895.846 1495.86 923.662 1512" stroke="#29A8DE" stroke-width="2" stroke-miterlimit="10"/>
<path d="M1053.59 1482.87C1032.31 1470.33 1017.73 1448.27 1010.66 1424.65C1003.58 1401.01 1003.39 1375.77 1006.14 1351.24C1009.74 1319.01 1018.46 1286.92 1035.43 1259.29C1052.65 1231.4 1078.53 1208.42 1109.46 1197.42C1128.27 1190.75 1148.17 1188.65 1167.84 1185.72C1179.76 1183.94 1191.62 1181.87 1203.11 1178.32C1254.35 1162.5 1293.33 1118.68 1317.46 1070.48C1319.1 1067.22 1320.66 1063.94 1322.2 1060.63C1341.62 1018.45 1353.16 972.152 1369.89 930.106C1371.24 926.717 1372.61 923.354 1374.01 920.045C1382.45 899.977 1392.49 880.151 1409.25 867.346C1410.7 866.216 1412.23 865.167 1413.79 864.145C1433.35 851.609 1464.15 852.309 1478.44 872.431" stroke="#29A8DE" stroke-width="2" stroke-miterlimit="10"/>
<path d="M1183.53 1453.79C1168.76 1444.83 1158.48 1429.63 1153.24 1413.22C1147.99 1396.81 1147.4 1379.19 1149.12 1362C1151.38 1339.43 1157.62 1317 1169.97 1297.98C1182.69 1278.37 1201.55 1262.82 1223.53 1254.56C1236.84 1249.56 1250.86 1247.32 1264.58 1244.42C1272.92 1242.64 1281.15 1240.62 1289.11 1237.64C1324.67 1224.35 1351.76 1192.9 1368.28 1158.17C1369.41 1155.83 1370.46 1153.47 1371.51 1151.07C1384.72 1120.7 1392.71 1086.59 1407.72 1059.53C1408.93 1057.35 1410.17 1055.22 1411.4 1053.15C1418.96 1040.67 1427.68 1029.69 1439.81 1023.56C1440.86 1023.02 1441.96 1022.51 1443.07 1022.05C1456.95 1016.27 1477.07 1019.01 1487.21 1033.38" stroke="#29A8DE" stroke-width="2" stroke-miterlimit="10"/>
<path d="M1157.7 399.836C1142.02 397.603 1131.42 415.169 1120.98 423.858C1106.67 435.749 1090.31 445.056 1073.34 452.535C1053.51 461.251 1032.72 467.519 1011.9 473.383C997.881 477.31 977.947 485.112 979.077 503.162C979.776 514.219 1003.66 505.476 1010.63 502.651C1060.26 482.529 1107.8 457.108 1161.68 447.585C1187.13 443.093 1181.34 403.548 1157.99 399.863C1157.89 399.863 1157.78 399.836 1157.7 399.836Z" stroke="#29A8DE" stroke-width="2" stroke-miterlimit="10"/>
<path d="M424.166 317.734C422.256 319.617 420.426 321.5 418.759 323.329C391.616 353.028 374.291 386.762 356.967 422.647C354.681 427.409 352.233 432.224 348.52 435.99C342.01 442.581 332.46 442.716 323.798 441.989C315.513 441.29 307.281 440.052 299.157 438.25C287.724 435.721 275.027 430.664 271.395 419.554C267.145 406.48 277.744 393.783 286.702 383.399C331.169 331.857 378.918 284.753 441.84 255.351C446.52 253.172 451.416 251.181 456.581 250.858C459.191 250.697 462.042 251.047 463.952 252.849C466.158 254.947 466.454 258.391 466.05 261.43C463.118 283.839 440.36 301.728 424.166 317.734Z" stroke="#29A8DE" stroke-width="2" stroke-miterlimit="10"/>
</g>
</g>
<defs>
<clipPath id="clip0_34_96">
<rect width="1328" height="1036" fill="white" transform="matrix(1 0 0 -1 0 1036)"/>
</clipPath>
</defs>
</svg>
